<svg version="1.1" id="o" class="" xmlns="http://www.w3.org/2000/svg" xmlns:xlink="http://www.w3.org/1999/xlink" x="0px" y="0px" viewBox="-377 595 36 36" style="enable-background:new -377 595 36 36;" xml:space="preserve">
<g stroke="none" fill="#000000" stroke-width="1px">
    <path class="st0" d="M-359,628.4c-9.2,0-15.8-6.5-15.8-15.5s6.6-15.5,15.8-15.5s15.8,6.5,15.8,15.5S-349.9,628.4-359,628.4z
         M-359,599.4c-8,0-13.8,5.7-13.8,13.5s5.8,13.5,13.8,13.5c8.1,0,13.8-5.6,13.8-13.5S-350.9,599.4-359,599.4z M-358.9,622.5
        c-5.3,0-9.1-4-9.1-9.6c0-5.4,3.8-9.4,9.1-9.4c5.2,0,9,4,9,9.4C-349.9,618.5-353.7,622.5-358.9,622.5z M-358.9,605.5
        c-4.2,0-7.1,3-7.1,7.4c0,4.5,2.9,7.6,7.1,7.6c4.1,0,7-3.1,7-7.6C-351.9,608.5-354.8,605.5-358.9,605.5z" stroke="none" fill="#010101" stroke-width="1px"></path>
    <rect x="-377" y="595" class="st1" width="36" height="36" stroke="none" fill="none" stroke-width="1px"></rect>
</g>
</svg>